<?xml version="1.0" encoding="utf-8"?>
<!-- Generator: Adobe Illustrator 26.0.1, SVG Export Plug-In . SVG Version: 6.00 Build 0)  -->
<svg version="1.1" id="Layer_1" xmlns="http://www.w3.org/2000/svg" xmlns:xlink="http://www.w3.org/1999/xlink" x="0px" y="0px"
	 viewBox="0 0 1406.3 204.2" style="enable-background:new 0 0 1406.3 204.2;" xml:space="preserve">
<style type="text/css">
	.st0{fill:none;stroke:#010101;stroke-width:2;stroke-miterlimit:10;}
	.st1{fill:none;stroke:#010101;stroke-miterlimit:10;}
	.st2{fill:#FFFFFF;}
	.st3{fill:#010101;}
	.st4{fill:none;stroke:#010101;stroke-width:1.2;stroke-miterlimit:10;}
	.st5{fill:none;stroke:#010101;stroke-width:1.3078;stroke-miterlimit:10;}
</style>
<g>
	<g>
		<path class="st5" d="M119.4,8.2l19.8,40.1c2,4,5.8,6.8,10.2,7.4l44.3,6.4c11.1,1.6,15.5,15.3,7.5,23.1l-32,31.2
			c-3.2,3.1-4.6,7.6-3.9,12l7.6,44.1c1.9,11.1-9.7,19.5-19.6,14.3L113.6,166c-3.9-2.1-8.7-2.1-12.6,0l-39.6,20.8
			c-9.9,5.2-21.5-3.2-19.6-14.3l7.6-44.1c0.8-4.4-0.7-8.9-3.9-12l-32-31.2c-8-7.8-3.6-21.5,7.5-23.1l44.3-6.4
			c4.4-0.6,8.2-3.4,10.2-7.4L95.1,8.2C100.1-1.9,114.5-1.9,119.4,8.2z"/>
		<path class="st5" d="M125.4,9.2l16.9,41.4c1.7,4.1,5.3,7.2,9.7,8.1l43.7,9.5c11,2.4,14.4,16.3,5.9,23.6l-34.1,28.9
			c-3.4,2.9-5.2,7.2-4.7,11.7l4.5,44.5c1.1,11.2-11,18.8-20.6,12.9l-38-23.5c-3.8-2.3-8.5-2.7-12.6-0.9l-40.9,18
			c-10.3,4.5-21.3-4.7-18.6-15.6l10.6-43.4c1.1-4.3-0.1-8.9-3-12.2L14.3,78.7c-7.5-8.4-2.1-21.7,9.1-22.5L68,52.8
			c4.4-0.3,8.4-2.8,10.7-6.7l22.5-38.6C106.9-2.2,121.2-1.2,125.4,9.2z"/>
		<path class="st5" d="M131.3,10.7l14,42.5c1.4,4.2,4.8,7.5,9.1,8.8l42.9,12.5c10.8,3.1,13.3,17.3,4.2,23.9l-36.1,26.5
			c-3.6,2.6-5.7,6.9-5.5,11.3l1.4,44.7c0.3,11.2-12.3,18-21.4,11.4l-36.3-26.1c-3.6-2.6-8.3-3.3-12.5-1.8L49,179.4
			c-10.6,3.8-20.9-6.2-17.5-16.9L45.2,120c1.4-4.2,0.5-8.9-2.2-12.4L15.6,72.2C8.8,63.3,15,50.4,26.3,50.4L71,50.1
			c4.5,0,8.6-2.2,11.1-5.9l25.2-37C113.6-2,127.8,0,131.3,10.7z"/>
		<path class="st5" d="M137.1,12.5l11,43.3c1.1,4.3,4.3,7.8,8.4,9.4l41.9,15.5c10.5,3.9,12,18.2,2.5,24.1l-37.8,23.9
			c-3.8,2.4-6.1,6.5-6.3,10.9l-1.8,44.7c-0.4,11.2-13.6,17-22.2,9.9l-34.4-28.6c-3.4-2.8-8-3.8-12.3-2.6l-43,12.1
			c-10.8,3-20.4-7.6-16.2-18l16.6-41.5c1.6-4.1,1.2-8.8-1.3-12.5L17.4,65.8c-6.2-9.3,0.9-21.8,12.1-21l44.6,2.9
			c4.4,0.3,8.8-1.6,11.5-5.1l27.7-35.1C120.3-1.4,134.4,1.6,137.1,12.5z"/>
		<path class="st5" d="M142.8,14.7l8,44c0.8,4.4,3.7,8.1,7.8,9.9l40.8,18.4c10.2,4.6,10.7,19,0.8,24.3l-39.4,21.2
			c-3.9,2.1-6.6,6-7,10.4l-4.9,44.5c-1.2,11.2-14.7,16.1-22.8,8.3l-32.3-30.9c-3.2-3.1-7.7-4.4-12.1-3.5l-43.8,9.1
			c-11,2.3-19.8-9-14.9-19.1L42.3,111c1.9-4,1.8-8.7-0.4-12.6L19.6,59.6c-5.6-9.7,2.5-21.6,13.6-20.1l44.3,6c4.4,0.6,8.8-1,11.8-4.3
			L119.4,8C127-0.3,140.8,3.7,142.8,14.7z"/>
		<path class="st5" d="M148.3,17.4l4.9,44.5c0.5,4.4,3.1,8.3,7,10.4l39.4,21.2c9.9,5.3,9.4,19.7-0.8,24.3L158,136.1
			c-4.1,1.8-7,5.5-7.8,9.9l-8,44c-2,11-15.8,15-23.3,6.7l-30.1-33.1c-3-3.3-7.4-4.9-11.8-4.3l-44.3,6c-11.1,1.5-19.1-10.4-13.6-20.1
			l22.2-38.8c2.2-3.9,2.4-8.6,0.4-12.6L22.3,53.5c-4.9-10.1,4-21.4,14.9-19.1L81,43.5c4.4,0.9,8.9-0.4,12.1-3.5l32.3-30.9
			C133.6,1.3,147,6.2,148.3,17.4z"/>
		<path class="st5" d="M153.6,20.4l1.8,44.7c0.2,4.5,2.5,8.5,6.3,10.9l37.8,23.9c9.5,6,8,20.3-2.5,24.1L155,139.5
			c-4.2,1.5-7.3,5-8.4,9.4l-11,43.3c-2.8,10.9-16.8,13.9-23.8,5l-27.7-35.1c-2.8-3.5-7.1-5.4-11.5-5.1l-44.6,2.9
			c-11.2,0.7-18.4-11.7-12.1-21l24.8-37.2c2.5-3.7,3-8.4,1.3-12.5L25.4,47.6c-4.2-10.4,5.4-21.1,16.2-18l43,12.1
			c4.3,1.2,8.9,0.2,12.3-2.6l34.4-28.6C140,3.3,153.1,9.2,153.6,20.4z"/>
		<path class="st5" d="M158.6,23.8l-1.4,44.7c-0.1,4.5,1.9,8.7,5.5,11.3l36.1,26.5c9,6.6,6.6,20.8-4.2,23.9l-42.9,12.5
			c-4.3,1.2-7.7,4.5-9.1,8.8l-14,42.5c-3.5,10.7-17.7,12.7-24,3.4l-25.2-37c-2.5-3.7-6.7-5.9-11.1-5.9l-44.7-0.2
			c-11.2-0.1-17.5-12.9-10.6-21.8L40.3,97c2.7-3.5,3.5-8.2,2.2-12.4L28.9,42c-3.4-10.7,6.9-20.7,17.5-16.9l42.1,15.1
			c4.2,1.5,8.9,0.8,12.5-1.8l36.3-26.1C146.3,5.8,159,12.5,158.6,23.8z"/>
		<path class="st5" d="M163.4,27.5L159,72c-0.4,4.4,1.3,8.8,4.7,11.7l34.1,28.9c8.6,7.3,5.1,21.2-5.9,23.6l-43.7,9.5
			c-4.4,0.9-8,4-9.7,8.1l-16.9,41.4c-4.3,10.4-18.6,11.4-24.2,1.7l-22.5-38.6c-2.2-3.8-6.2-6.3-10.7-6.7l-44.6-3.3
			C8.4,147.3,3,134,10.5,125.6l29.8-33.4c3-3.3,4.1-7.9,3-12.2L32.7,36.6C30.1,25.7,41,16.5,51.3,21l40.9,18
			c4.1,1.8,8.8,1.5,12.6-0.9l38-23.5C152.4,8.7,164.6,16.3,163.4,27.5z"/>
		<path class="st5" d="M168,31.5l-7.6,44.1c-0.8,4.4,0.7,8.9,3.9,12l32,31.2c8,7.8,3.6,21.5-7.5,23.1l-44.3,6.4
			c-4.4,0.6-8.2,3.4-10.2,7.4l-19.8,40.1c-5,10.1-19.3,10.1-24.3,0l-19.8-40.1c-2-4-5.8-6.8-10.2-7.4l-44.3-6.4
			C5,140.3,0.6,126.6,8.6,118.8l32-31.2c3.2-3.1,4.6-7.6,3.9-12l-7.6-44.1C35,20.5,46.7,12,56.6,17.2L96.2,38
			c3.9,2.1,8.7,2.1,12.6,0l39.6-20.8C158.3,12,169.9,20.5,168,31.5z"/>
		<path class="st5" d="M172.2,35.9l-10.6,43.4c-1.1,4.3,0.1,8.9,3,12.2l29.8,33.4c7.5,8.4,2.1,21.7-9.1,22.5l-44.6,3.3
			c-4.4,0.3-8.4,2.8-10.7,6.7L107.5,196c-5.7,9.7-20,8.7-24.2-1.7L66.4,153c-1.7-4.1-5.3-7.2-9.7-8.1L13,135.4
			c-11-2.4-14.4-16.3-5.9-23.6l34.1-28.9c3.4-2.9,5.2-7.2,4.7-11.7l-4.5-44.5c-1.1-11.2,11-18.8,20.6-12.9l38,23.5
			c3.8,2.3,8.5,2.7,12.6,0.9l40.9-18C163.9,15.7,174.9,25,172.2,35.9z"/>
		<path class="st5" d="M176.2,40.5l-13.6,42.6c-1.4,4.2-0.5,8.9,2.2,12.4l27.4,35.4c6.9,8.9,0.6,21.8-10.6,21.8l-44.7,0.2
			c-4.5,0-8.6,2.2-11.1,5.9l-25.2,37c-6.3,9.3-20.5,7.3-24-3.4l-14-42.5c-1.4-4.2-4.8-7.5-9.1-8.8l-42.9-12.5
			c-10.8-3.1-13.3-17.3-4.2-23.9l36.1-26.5c3.6-2.6,5.7-6.9,5.5-11.3l-1.4-44.7C46.1,11,58.7,4.3,67.9,10.9L104.2,37
			c3.6,2.6,8.3,3.3,12.5,1.8l42.1-15.1C169.3,19.8,179.6,29.8,176.2,40.5z"/>
	</g>
	<g>
		<path class="st3" d="M258.4,116.1V83h14.1v3.2c3.9-2.1,8.2-3.2,12.6-3.2h27.3c14.7,0.1,26.6,12,26.7,26.7v39.4h-14v-39.4
			c0-7-5.7-12.6-12.6-12.6H285c-6.9,0-12.6,5.7-12.6,12.6v39.4h-14L258.4,116.1z"/>
		<path class="st3" d="M355.3,149.1V52.5H425c17.5,0,31.7,14.2,31.7,31.7v33.1c-0.1,17.5-14.2,31.7-31.7,31.7L355.3,149.1z
			 M369.3,66.5v68.5H425c9.8,0,17.7-7.9,17.7-17.7V84.2c0-9.8-7.9-17.7-17.7-17.7L369.3,66.5z"/>
		<path class="st3" d="M471.9,58.6h14v14h-14V58.6z M471.9,83h14v66.1h-14V83z"/>
		<path class="st3" d="M502.3,83h14v3.2c3.9-2.1,8.2-3.2,12.6-3.2h8.9c7.5,0,14.6,3.2,19.6,8.7c5-5.5,12.2-8.7,19.6-8.7h8.9
			c14.7,0.1,26.6,12,26.6,26.7v39.4h-14v-39.4c0-7-5.6-12.6-12.6-12.6h-8.9c-7,0-12.6,5.7-12.6,12.6v39.4h-14v-39.4
			c0-7-5.7-12.6-12.6-12.6h-8.9c-7,0-12.6,5.7-12.6,12.6v39.4h-14V83z"/>
		<path class="st3" d="M685,149.1h-32.8c-14.7-0.1-26.6-12-26.6-26.7v-12.8c0.1-14.7,12-26.6,26.6-26.7H685
			c14.4,0.1,26.2,11.6,26.6,26v14h-72c0.4,6.7,5.9,12,12.6,12h56.3C703.8,143.7,694.8,149.1,685,149.1z M697.6,109
			c-0.4-6.7-5.9-12-12.6-12h-32.8c-6.7,0-12.2,5.3-12.6,12H697.6z"/>
		<path class="st3" d="M725.2,116.1V83h14.1v3.2c3.9-2.1,8.2-3.2,12.6-3.2h27.3c14.7,0.1,26.6,12,26.7,26.7v39.4h-14v-39.4
			c0-7-5.7-12.6-12.6-12.6h-27.3c-6.9,0-12.6,5.7-12.6,12.6v39.4h-14L725.2,116.1z"/>
		<path class="st3" d="M821.1,135h56.3c6.7,0,12.2-5.3,12.6-12h-59.9c-6.7,0-12.2-5.5-12.2-12.2V109c0.4-14.4,12.2-26,26.6-26h32.8
			c9.8,0,18.8,5.4,23.5,14h-56.3c-6.7,0-12.2,5.3-12.6,12h59.9c6.7,0,12.2,5.5,12.2,12.2v1.2c-0.1,14.7-12,26.6-26.6,26.7h-32.8
			C834.8,149.1,825.8,143.7,821.1,135z"/>
		<path class="st3" d="M917.2,58.6h14v14h-14V58.6z M917.2,83h14v66.1h-14V83z"/>
		<path class="st3" d="M988.2,149.1h-16.4c-14.7-0.1-26.6-12-26.6-26.7v-12.8c0.1-14.7,12-26.6,26.6-26.7h32.8
			c14.7,0,26.6,12,26.7,26.7v12.8c-0.1,14.7-12,26.6-26.6,26.7L988.2,149.1z M971.8,97.1c-7,0-12.6,5.7-12.6,12.6v12.8
			c0,7,5.6,12.6,12.6,12.6h32.8c7,0,12.6-5.7,12.6-12.6v-12.8c0-7-5.7-12.6-12.6-12.6H971.8z"/>
		<path class="st3" d="M1045.4,116.1V83h14.1v3.2c3.9-2.1,8.2-3.2,12.6-3.2h27.3c14.7,0.1,26.6,12,26.7,26.7v39.4h-14v-39.4
			c0-7-5.7-12.6-12.6-12.6H1072c-6.9,0-12.6,5.7-12.6,12.6v39.4h-14L1045.4,116.1z"/>
		<path class="st3" d="M1141.3,135h56.3c6.7,0,12.2-5.3,12.6-12h-59.9c-6.7,0-12.2-5.5-12.2-12.2V109c0.4-14.4,12.2-26,26.6-26h32.8
			c9.8,0,18.8,5.4,23.5,14h-56.3c-6.7,0-12.2,5.3-12.6,12h59.9c6.7,0,12.2,5.5,12.2,12.2v1.2c-0.1,14.7-12,26.6-26.6,26.7h-32.8
			C1155,149.1,1146,143.7,1141.3,135z"/>
		<path class="st3" d="M1234.5,151.7v-14h14v14H1234.5z"/>
		<path class="st3" d="M1329.7,52.5l22.6,43.8c9-1.6,18.1-2.5,27.2-2.5v14.1c-6.8-0.2-13.7,0.3-20.5,1.4l20.5,39.7h-15.8l-19-37
			c-43.3,9.9-59.7,29.6-64.5,37h-15.9l49.7-96.6L1329.7,52.5z M1297.2,115.7c12.8-7.4,26.5-12.9,40.9-16.3l-16.2-31.6L1297.2,115.7
			L1297.2,115.7z"/>
		<path class="st3" d="M1392.3,149.1V52.5h14v96.6H1392.3z"/>
	</g>
</g>
</svg>
