<?xml version="1.0" encoding="utf-8"?>
<!-- Generator: Adobe Illustrator 26.0.1, SVG Export Plug-In . SVG Version: 6.00 Build 0)  -->
<svg version="1.1" id="Layer_1" xmlns="http://www.w3.org/2000/svg" xmlns:xlink="http://www.w3.org/1999/xlink" x="0px" y="0px"
	 viewBox="0 0 1366.3 187.3" style="enable-background:new 0 0 1366.3 187.3;" xml:space="preserve">
<style type="text/css">
	.st0{fill:none;stroke:#010101;stroke-width:2;stroke-miterlimit:10;}
	.st1{fill:none;stroke:#010101;stroke-miterlimit:10;}
	.st2{fill:#010101;}
	.st3{fill:none;stroke:#010101;stroke-width:1.2;stroke-miterlimit:10;}
</style>
<g>
	<g>
		<path class="st3" d="M109.6,7.5l18.2,36.8c1.8,3.7,5.3,6.2,9.4,6.8l40.6,5.9c10.2,1.5,14.3,14,6.9,21.2l-29.4,28.6
			c-2.9,2.9-4.3,7-3.6,11l6.9,40.4c1.7,10.1-8.9,17.9-18,13.1l-36.3-19.1c-3.6-1.9-7.9-1.9-11.6,0l-36.3,19.1
			c-9.1,4.8-19.8-2.9-18-13.1l6.9-40.4c0.7-4-0.6-8.1-3.6-11L12.3,78.2C4.9,71,9,58.5,19.2,57l40.6-5.9c4-0.6,7.5-3.1,9.4-6.8
			L87.3,7.5C91.9-1.7,105-1.7,109.6,7.5z"/>
		<path class="st3" d="M115.1,8.5l15.5,38c1.5,3.8,4.9,6.6,8.9,7.4l40.1,8.7c10.1,2.2,13.2,15,5.4,21.6l-31.3,26.5
			c-3.1,2.6-4.7,6.7-4.3,10.7l4.1,40.8c1,10.2-10.1,17.2-18.9,11.8l-34.9-21.6c-3.5-2.2-7.8-2.5-11.5-0.8l-37.6,16.5
			c-9.4,4.1-19.5-4.3-17.1-14.3l9.7-39.9c1-4-0.1-8.2-2.8-11.2L13.1,72.2c-6.9-7.7-1.9-19.9,8.3-20.7l40.9-3.1
			c4.1-0.3,7.7-2.6,9.8-6.1L92.9,6.9C98-2,111.2-1.1,115.1,8.5z"/>
		<path class="st3" d="M120.5,9.8l12.9,39c1.3,3.9,4.4,6.9,8.3,8l39.4,11.5c9.9,2.9,12.2,15.9,3.9,21.9l-33.1,24.3
			c-3.3,2.4-5.2,6.3-5.1,10.4l1.2,41c0.3,10.3-11.3,16.5-19.7,10.5l-33.3-24c-3.3-2.4-7.6-3-11.4-1.6L45,164.6
			c-9.7,3.5-19.2-5.7-16-15.5l12.5-39.1c1.2-3.9,0.5-8.2-2-11.4L14.3,66.2c-6.3-8.1-0.5-20,9.8-20l41-0.2c4.1,0,7.9-2,10.2-5.4
			L98.4,6.7C104.2-1.8,117.3,0,120.5,9.8z"/>
		<path class="st3" d="M125.8,11.5l10.1,39.8c1,4,3.9,7.2,7.7,8.6L182.2,74c9.7,3.6,11,16.7,2.3,22.2l-34.7,21.9
			c-3.5,2.2-5.6,5.9-5.8,10l-1.6,41c-0.4,10.3-12.4,15.6-20.4,9.1L90.5,152c-3.1-2.6-7.4-3.5-11.3-2.4l-39.5,11.1
			c-9.9,2.8-18.7-7-14.9-16.6L40,106c1.5-3.8,1.1-8.1-1.2-11.5L16,60.4c-5.7-8.6,0.9-20,11.1-19.3l40.9,2.7c4.1,0.3,8-1.5,10.6-4.7
			L104,6.8C110.4-1.2,123.3,1.5,125.8,11.5z"/>
		<path class="st3" d="M131,13.5l7.3,40.4c0.7,4,3.4,7.4,7.1,9.1l37.4,16.9c9.4,4.2,9.8,17.4,0.8,22.3l-36.1,19.4
			c-3.6,1.9-6,5.5-6.5,9.6l-4.5,40.8c-1.1,10.2-13.5,14.7-20.9,7.6L86,151.2c-3-2.8-7.1-4-11.1-3.2l-40.2,8.3
			c-10.1,2.1-18.2-8.3-13.7-17.6l17.8-37c1.8-3.7,1.6-8-0.4-11.6L18,54.7c-5.1-8.9,2.3-19.9,12.5-18.5l40.7,5.5
			c4.1,0.6,8.1-0.9,10.9-4l27.6-30.4C116.5-0.2,129.2,3.4,131,13.5z"/>
		<path class="st3" d="M136.1,15.9l4.5,40.8c0.4,4.1,2.9,7.6,6.5,9.6l36.1,19.4c9.1,4.9,8.6,18-0.8,22.3L145,124.9
			c-3.7,1.7-6.4,5.1-7.1,9.1l-7.3,40.4c-1.8,10.1-14.5,13.8-21.4,6.1l-27.6-30.4c-2.8-3-6.8-4.5-10.9-4L30,151.7
			c-10.2,1.4-17.6-9.5-12.5-18.5l20.4-35.6c2-3.6,2.2-7.9,0.4-11.6l-17.8-37c-4.5-9.3,3.6-19.7,13.7-17.6l40.2,8.3
			c4,0.8,8.2-0.4,11.1-3.2l29.6-28.4C122.6,1.2,134.9,5.7,136.1,15.9z"/>
		<path class="st3" d="M140.9,18.7l1.6,41c0.2,4.1,2.3,7.8,5.8,10L183,91.6c8.7,5.5,7.3,18.6-2.3,22.2L142.2,128
			c-3.8,1.4-6.7,4.6-7.7,8.6l-10.1,39.8c-2.5,10-15.4,12.7-21.8,4.6l-25.4-32.2c-2.5-3.2-6.5-5-10.6-4.7l-40.9,2.7
			c-10.3,0.7-16.9-10.7-11.1-19.3l22.8-34.1c2.3-3.4,2.7-7.7,1.2-11.5L23.3,43.7c-3.8-9.6,5-19.3,14.9-16.6l39.5,11.1
			c3.9,1.1,8.2,0.2,11.3-2.4l31.6-26.2C128.5,3.1,140.5,8.4,140.9,18.7z"/>
		<path class="st3" d="M145.6,21.8l-1.2,41c-0.1,4.1,1.8,8,5.1,10.4l33.1,24.3c8.3,6.1,6,19.1-3.9,21.9l-39.4,11.5
			c-3.9,1.1-7,4.1-8.3,8l-12.9,39c-3.2,9.8-16.3,11.6-22.1,3.1l-23.1-33.9c-2.3-3.4-6.1-5.4-10.2-5.4l-41-0.2
			c-10.3,0-16.1-11.9-9.8-20L37,89c2.5-3.2,3.3-7.5,2-11.4L26.5,38.5c-3.1-9.8,6.3-19,16-15.5l38.6,13.9c3.8,1.4,8.1,0.8,11.4-1.6
			l33.3-24C134.2,5.3,145.9,11.5,145.6,21.8z"/>
		<path class="st3" d="M150,25.2L145.9,66c-0.4,4.1,1.2,8.1,4.3,10.7l31.3,26.5c7.9,6.7,4.7,19.4-5.4,21.6l-40.1,8.7
			c-4,0.9-7.3,3.6-8.9,7.4l-15.5,38c-3.9,9.5-17,10.4-22.2,1.6l-20.7-35.4c-2.1-3.5-5.7-5.8-9.8-6.1L18,136
			c-10.3-0.8-15.2-13-8.3-20.7L37,84.7c2.7-3.1,3.8-7.2,2.8-11.2L30,33.6c-2.4-10,7.6-18.5,17.1-14.3l37.6,16.5
			c3.7,1.6,8.1,1.3,11.5-0.8l34.9-21.6C139.8,8,151,15,150,25.2z"/>
		<path class="st3" d="M154.2,28.9l-6.9,40.4c-0.7,4,0.6,8.1,3.6,11l29.4,28.6c7.4,7.2,3.3,19.7-6.9,21.2l-40.6,5.9
			c-4,0.6-7.5,3.1-9.4,6.8l-18.2,36.8c-4.6,9.2-17.7,9.2-22.3,0l-18.2-36.8c-1.8-3.7-5.3-6.2-9.4-6.8l-40.6-5.9
			c-10.2-1.5-14.3-14-6.9-21.2l29.4-28.6c2.9-2.9,4.3-7,3.6-11l-6.9-40.4c-1.7-10.1,8.9-17.9,18-13.1l36.3,19.1
			c3.6,1.9,7.9,1.9,11.6,0l36.3-19.1C145.2,11,155.9,18.8,154.2,28.9z"/>
		<path class="st3" d="M158.1,32.9l-9.7,39.9c-1,4,0.1,8.2,2.8,11.2l27.3,30.6c6.9,7.7,1.9,19.9-8.3,20.7l-40.9,3.1
			c-4.1,0.3-7.7,2.6-9.8,6.1l-20.7,35.4c-5.2,8.9-18.3,8-22.2-1.6l-15.5-38c-1.5-3.8-4.9-6.6-8.9-7.4l-40.1-8.7
			c-10.1-2.2-13.2-15-5.4-21.6l31.3-26.5c3.1-2.6,4.7-6.7,4.3-10.7l-4.1-40.8C37.1,14.3,48.2,7.3,57,12.7l34.9,21.6
			c3.5,2.2,7.8,2.5,11.5,0.8L141,18.6C150.4,14.4,160.5,22.9,158.1,32.9z"/>
		<path class="st3" d="M161.7,37.2l-12.5,39.1c-1.2,3.9-0.5,8.2,2,11.4l25.1,32.5c6.3,8.1,0.5,20-9.8,20l-41,0.2
			c-4.1,0-7.9,2-10.2,5.4l-23.1,33.9c-5.8,8.5-18.8,6.7-22.1-3.1l-12.9-39c-1.3-3.9-4.4-6.9-8.3-8L9.5,118
			c-9.9-2.9-12.2-15.9-3.9-21.9l33.1-24.3c3.3-2.4,5.2-6.3,5.1-10.4l-1.2-41C42.3,10.1,53.9,4,62.3,10l33.3,24
			c3.3,2.4,7.6,3,11.4,1.6l38.6-13.9C155.3,18.2,164.8,27.4,161.7,37.2z"/>
	</g>
	<g>
		<path class="st2" d="M228.3,97.6v-33h14.1v3.2c3.9-2.1,8.2-3.2,12.6-3.2h27.3c14.7,0.1,26.6,12,26.7,26.7v39.4h-14V91.3
			c0-7-5.7-12.6-12.6-12.6H255c-6.9,0-12.6,5.7-12.6,12.6v39.4h-14L228.3,97.6z"/>
		<path class="st2" d="M325.2,130.7V34.1h69.7c17.5,0,31.7,14.2,31.7,31.7V99c-0.1,17.5-14.2,31.7-31.7,31.7L325.2,130.7z
			 M339.3,48.1v68.5h55.7c9.8,0,17.7-7.9,17.7-17.7V65.8c0-9.8-7.9-17.7-17.7-17.7L339.3,48.1z"/>
		<path class="st2" d="M441.8,40.2h14v14h-14V40.2z M441.8,64.6h14v66.1h-14V64.6z"/>
		<path class="st2" d="M472.2,64.6h14v3.2c3.9-2.1,8.2-3.2,12.6-3.2h8.9c7.5,0,14.6,3.2,19.6,8.7c5-5.5,12.2-8.7,19.6-8.7h8.9
			c14.7,0.1,26.6,12,26.6,26.7v39.4h-14V91.3c0-7-5.6-12.6-12.6-12.6H547c-7,0-12.6,5.7-12.6,12.6v39.4h-14V91.3
			c0-7-5.7-12.6-12.6-12.6h-8.9c-7,0-12.6,5.7-12.6,12.6v39.4h-14V64.6z"/>
		<path class="st2" d="M654.9,130.7h-32.8c-14.7-0.1-26.6-12-26.6-26.7V91.3c0.1-14.7,12-26.6,26.6-26.7h32.8
			c14.4,0.1,26.2,11.6,26.6,26v14h-72c0.4,6.7,5.9,12,12.6,12h56.3C673.7,125.3,664.7,130.7,654.9,130.7z M667.5,90.6
			c-0.4-6.7-5.9-12-12.6-12h-32.8c-6.7,0-12.2,5.3-12.6,12H667.5z"/>
		<path class="st2" d="M695.1,97.6v-33h14.1v3.2c3.9-2.1,8.2-3.2,12.6-3.2h27.3c14.7,0.1,26.6,12,26.7,26.7v39.4h-14V91.3
			c0-7-5.7-12.6-12.6-12.6h-27.3c-6.9,0-12.6,5.7-12.6,12.6v39.4h-14L695.1,97.6z"/>
		<path class="st2" d="M791.1,116.6h56.3c6.7,0,12.2-5.3,12.6-12H800c-6.7,0-12.2-5.5-12.2-12.2v-1.9c0.4-14.4,12.2-26,26.6-26h32.8
			c9.8,0,18.8,5.4,23.5,14h-56.3c-6.7,0-12.2,5.3-12.6,12h59.9c6.7,0,12.2,5.5,12.2,12.2v1.2c-0.1,14.7-12,26.6-26.6,26.7h-32.8
			C804.7,130.7,795.7,125.3,791.1,116.6z"/>
		<path class="st2" d="M887.1,40.2h14v14h-14V40.2z M887.1,64.6h14v66.1h-14V64.6z"/>
		<path class="st2" d="M958.2,130.7h-16.4c-14.7-0.1-26.6-12-26.6-26.7V91.3c0.1-14.7,12-26.6,26.6-26.7h32.8
			c14.7,0,26.6,12,26.7,26.7v12.8c-0.1,14.7-12,26.6-26.6,26.7L958.2,130.7z M941.8,78.7c-7,0-12.6,5.7-12.6,12.6V104
			c0,7,5.6,12.6,12.6,12.6h32.8c7,0,12.6-5.7,12.6-12.6V91.3c0-7-5.7-12.6-12.6-12.6H941.8z"/>
		<path class="st2" d="M1015.3,97.6v-33h14.1v3.2c3.9-2.1,8.2-3.2,12.6-3.2h27.3c14.7,0.1,26.6,12,26.7,26.7v39.4h-14V91.3
			c0-7-5.7-12.6-12.6-12.6H1042c-6.9,0-12.6,5.7-12.6,12.6v39.4h-14L1015.3,97.6z"/>
		<path class="st2" d="M1111.3,116.6h56.3c6.7,0,12.2-5.3,12.6-12h-59.9c-6.7,0-12.2-5.5-12.2-12.2v-1.9c0.4-14.4,12.2-26,26.6-26
			h32.8c9.8,0,18.8,5.4,23.5,14h-56.3c-6.7,0-12.2,5.3-12.6,12h59.9c6.7,0,12.2,5.5,12.2,12.2v1.2c-0.1,14.7-12,26.6-26.6,26.7
			h-32.8C1124.9,130.7,1115.9,125.3,1111.3,116.6z"/>
		<path class="st2" d="M1204.4,133.3v-14h14v14H1204.4z"/>
		<path class="st2" d="M1289.7,34.1l22.6,43.8c9-1.6,18.1-2.5,27.2-2.5v14.1c-6.8-0.2-13.7,0.3-20.5,1.4l20.5,39.7h-15.8l-19-37
			c-43.3,9.9-59.7,29.6-64.5,37h-15.9l49.7-96.6L1289.7,34.1z M1257.1,97.3c12.8-7.4,26.5-12.9,40.9-16.3l-16.2-31.6L1257.1,97.3
			L1257.1,97.3z"/>
		<path class="st2" d="M1352.2,130.7V34.1h14v96.6H1352.2z"/>
	</g>
</g>
</svg>
